<mxfile host="app.diagrams.net" agent="Mozilla/5.0 (Windows NT 10.0; Win64; x64) AppleWebKit/537.36 (KHTML, like Gecko) Chrome/127.0.0.0 Safari/537.36" version="24.7.7">
  <diagram name="Page-1" id="_MrSU4HXDRAcZIaYhf6t">
    <mxGraphModel dx="794" dy="458" grid="1" gridSize="10" guides="1" tooltips="1" connect="1" arrows="1" fold="1" page="1" pageScale="1" pageWidth="850" pageHeight="1100" math="0" shadow="0">
      <root>
        <mxCell id="0" />
        <mxCell id="1" parent="0" />
        <mxCell id="xGYagt261xtawh2tjkWc-1" value="int i = 2" style="whiteSpace=wrap;html=1;aspect=fixed;fontSize=20;fontStyle=1" vertex="1" parent="1">
          <mxGeometry x="10" y="240" width="80" height="80" as="geometry" />
        </mxCell>
        <mxCell id="xGYagt261xtawh2tjkWc-11" value="`" style="edgeStyle=orthogonalEdgeStyle;rounded=0;orthogonalLoop=1;jettySize=auto;html=1;entryX=0;entryY=0;entryDx=0;entryDy=0;" edge="1" parent="1" source="xGYagt261xtawh2tjkWc-2" target="xGYagt261xtawh2tjkWc-4">
          <mxGeometry relative="1" as="geometry" />
        </mxCell>
        <mxCell id="xGYagt261xtawh2tjkWc-2" value="p" style="whiteSpace=wrap;html=1;aspect=fixed;fontSize=20;fontStyle=1" vertex="1" parent="1">
          <mxGeometry x="40" y="160" width="40" height="40" as="geometry" />
        </mxCell>
        <mxCell id="xGYagt261xtawh2tjkWc-4" value="0" style="rounded=0;whiteSpace=wrap;html=1;fontSize=20;fontStyle=1" vertex="1" parent="1">
          <mxGeometry x="160" y="160" width="80" height="40" as="geometry" />
        </mxCell>
        <mxCell id="xGYagt261xtawh2tjkWc-12" style="edgeStyle=orthogonalEdgeStyle;rounded=0;orthogonalLoop=1;jettySize=auto;html=1;" edge="1" parent="1" source="xGYagt261xtawh2tjkWc-5">
          <mxGeometry relative="1" as="geometry">
            <mxPoint x="160" y="280" as="targetPoint" />
          </mxGeometry>
        </mxCell>
        <mxCell id="xGYagt261xtawh2tjkWc-5" value="left" style="whiteSpace=wrap;html=1;aspect=fixed;fontSize=13;fontStyle=1" vertex="1" parent="1">
          <mxGeometry x="160" y="200" width="40" height="40" as="geometry" />
        </mxCell>
        <mxCell id="xGYagt261xtawh2tjkWc-26" style="edgeStyle=orthogonalEdgeStyle;rounded=0;orthogonalLoop=1;jettySize=auto;html=1;" edge="1" parent="1" source="xGYagt261xtawh2tjkWc-6">
          <mxGeometry relative="1" as="geometry">
            <mxPoint x="280" y="260" as="targetPoint" />
          </mxGeometry>
        </mxCell>
        <mxCell id="xGYagt261xtawh2tjkWc-6" value="right" style="whiteSpace=wrap;html=1;aspect=fixed;fontSize=13;fontStyle=1" vertex="1" parent="1">
          <mxGeometry x="200" y="200" width="40" height="40" as="geometry" />
        </mxCell>
        <mxCell id="xGYagt261xtawh2tjkWc-7" value="1" style="rounded=0;whiteSpace=wrap;html=1;fontSize=20;fontStyle=1" vertex="1" parent="1">
          <mxGeometry x="160" y="280" width="80" height="40" as="geometry" />
        </mxCell>
        <mxCell id="xGYagt261xtawh2tjkWc-28" style="edgeStyle=orthogonalEdgeStyle;rounded=0;orthogonalLoop=1;jettySize=auto;html=1;" edge="1" parent="1" source="xGYagt261xtawh2tjkWc-8">
          <mxGeometry relative="1" as="geometry">
            <mxPoint x="120" y="400" as="targetPoint" />
          </mxGeometry>
        </mxCell>
        <mxCell id="xGYagt261xtawh2tjkWc-8" value="left" style="whiteSpace=wrap;html=1;aspect=fixed;fontSize=13;fontStyle=1" vertex="1" parent="1">
          <mxGeometry x="160" y="320" width="40" height="40" as="geometry" />
        </mxCell>
        <mxCell id="xGYagt261xtawh2tjkWc-27" style="edgeStyle=orthogonalEdgeStyle;rounded=0;orthogonalLoop=1;jettySize=auto;html=1;" edge="1" parent="1" source="xGYagt261xtawh2tjkWc-9">
          <mxGeometry relative="1" as="geometry">
            <mxPoint x="280" y="400" as="targetPoint" />
          </mxGeometry>
        </mxCell>
        <mxCell id="xGYagt261xtawh2tjkWc-9" value="right" style="whiteSpace=wrap;html=1;aspect=fixed;fontSize=13;fontStyle=1" vertex="1" parent="1">
          <mxGeometry x="200" y="320" width="40" height="40" as="geometry" />
        </mxCell>
        <mxCell id="xGYagt261xtawh2tjkWc-14" value="r" style="whiteSpace=wrap;html=1;aspect=fixed;fontSize=20;fontStyle=1" vertex="1" parent="1">
          <mxGeometry x="360" y="40" width="40" height="40" as="geometry" />
        </mxCell>
        <mxCell id="xGYagt261xtawh2tjkWc-15" value="i" style="whiteSpace=wrap;html=1;aspect=fixed;fontSize=20;fontStyle=1" vertex="1" parent="1">
          <mxGeometry x="400" y="40" width="40" height="40" as="geometry" />
        </mxCell>
        <mxCell id="xGYagt261xtawh2tjkWc-16" value="t" style="whiteSpace=wrap;html=1;aspect=fixed;fontSize=20;fontStyle=1" vertex="1" parent="1">
          <mxGeometry x="440" y="40" width="40" height="40" as="geometry" />
        </mxCell>
        <mxCell id="xGYagt261xtawh2tjkWc-17" value="p" style="whiteSpace=wrap;html=1;aspect=fixed;fontSize=20;fontStyle=1" vertex="1" parent="1">
          <mxGeometry x="480" y="40" width="40" height="40" as="geometry" />
        </mxCell>
        <mxCell id="xGYagt261xtawh2tjkWc-18" value="q" style="whiteSpace=wrap;html=1;aspect=fixed;fontSize=20;fontStyle=1" vertex="1" parent="1">
          <mxGeometry x="520" y="40" width="40" height="40" as="geometry" />
        </mxCell>
        <mxCell id="xGYagt261xtawh2tjkWc-19" value="j" style="whiteSpace=wrap;html=1;aspect=fixed;fontSize=20;fontStyle=1" vertex="1" parent="1">
          <mxGeometry x="560" y="40" width="40" height="40" as="geometry" />
        </mxCell>
        <mxCell id="xGYagt261xtawh2tjkWc-38" style="edgeStyle=orthogonalEdgeStyle;rounded=0;orthogonalLoop=1;jettySize=auto;html=1;" edge="1" parent="1" source="xGYagt261xtawh2tjkWc-20">
          <mxGeometry relative="1" as="geometry">
            <mxPoint x="40" y="150" as="targetPoint" />
          </mxGeometry>
        </mxCell>
        <mxCell id="xGYagt261xtawh2tjkWc-20" value="" style="whiteSpace=wrap;html=1;aspect=fixed;" vertex="1" parent="1">
          <mxGeometry x="360" y="80" width="40" height="40" as="geometry" />
        </mxCell>
        <mxCell id="xGYagt261xtawh2tjkWc-21" value="0" style="whiteSpace=wrap;html=1;aspect=fixed;fontSize=20;fontStyle=1" vertex="1" parent="1">
          <mxGeometry x="400" y="80" width="40" height="40" as="geometry" />
        </mxCell>
        <mxCell id="xGYagt261xtawh2tjkWc-36" style="edgeStyle=orthogonalEdgeStyle;rounded=0;orthogonalLoop=1;jettySize=auto;html=1;entryX=0;entryY=0;entryDx=0;entryDy=0;" edge="1" parent="1" source="xGYagt261xtawh2tjkWc-22" target="xGYagt261xtawh2tjkWc-33">
          <mxGeometry relative="1" as="geometry" />
        </mxCell>
        <mxCell id="xGYagt261xtawh2tjkWc-22" value="" style="whiteSpace=wrap;html=1;aspect=fixed;" vertex="1" parent="1">
          <mxGeometry x="440" y="80" width="40" height="40" as="geometry" />
        </mxCell>
        <mxCell id="xGYagt261xtawh2tjkWc-39" style="edgeStyle=orthogonalEdgeStyle;rounded=0;orthogonalLoop=1;jettySize=auto;html=1;" edge="1" parent="1" source="xGYagt261xtawh2tjkWc-23">
          <mxGeometry relative="1" as="geometry">
            <mxPoint x="500" y="160" as="targetPoint" />
          </mxGeometry>
        </mxCell>
        <mxCell id="xGYagt261xtawh2tjkWc-23" value="" style="whiteSpace=wrap;html=1;aspect=fixed;" vertex="1" parent="1">
          <mxGeometry x="480" y="80" width="40" height="40" as="geometry" />
        </mxCell>
        <mxCell id="xGYagt261xtawh2tjkWc-41" style="edgeStyle=orthogonalEdgeStyle;rounded=0;orthogonalLoop=1;jettySize=auto;html=1;" edge="1" parent="1" source="xGYagt261xtawh2tjkWc-24">
          <mxGeometry relative="1" as="geometry">
            <mxPoint x="540" y="160" as="targetPoint" />
          </mxGeometry>
        </mxCell>
        <mxCell id="xGYagt261xtawh2tjkWc-24" value="" style="whiteSpace=wrap;html=1;aspect=fixed;" vertex="1" parent="1">
          <mxGeometry x="520" y="80" width="40" height="40" as="geometry" />
        </mxCell>
        <mxCell id="xGYagt261xtawh2tjkWc-25" value="2" style="whiteSpace=wrap;html=1;aspect=fixed;fontSize=20;fontStyle=1" vertex="1" parent="1">
          <mxGeometry x="560" y="80" width="40" height="40" as="geometry" />
        </mxCell>
        <mxCell id="xGYagt261xtawh2tjkWc-30" value="" style="endArrow=none;html=1;rounded=0;" edge="1" parent="1">
          <mxGeometry width="50" height="50" relative="1" as="geometry">
            <mxPoint x="250" y="260" as="sourcePoint" />
            <mxPoint x="310" y="260" as="targetPoint" />
          </mxGeometry>
        </mxCell>
        <mxCell id="xGYagt261xtawh2tjkWc-31" value="" style="endArrow=none;html=1;rounded=0;" edge="1" parent="1">
          <mxGeometry width="50" height="50" relative="1" as="geometry">
            <mxPoint x="250" y="400" as="sourcePoint" />
            <mxPoint x="310" y="400" as="targetPoint" />
          </mxGeometry>
        </mxCell>
        <mxCell id="xGYagt261xtawh2tjkWc-32" value="" style="endArrow=none;html=1;rounded=0;" edge="1" parent="1">
          <mxGeometry width="50" height="50" relative="1" as="geometry">
            <mxPoint x="90" y="400" as="sourcePoint" />
            <mxPoint x="150" y="400" as="targetPoint" />
          </mxGeometry>
        </mxCell>
        <mxCell id="xGYagt261xtawh2tjkWc-33" value="0" style="rounded=0;whiteSpace=wrap;html=1;fontSize=20;fontStyle=1" vertex="1" parent="1">
          <mxGeometry x="440" y="210" width="80" height="40" as="geometry" />
        </mxCell>
        <mxCell id="xGYagt261xtawh2tjkWc-34" value="left" style="whiteSpace=wrap;html=1;aspect=fixed;fontSize=13;fontStyle=1" vertex="1" parent="1">
          <mxGeometry x="440" y="250" width="40" height="40" as="geometry" />
        </mxCell>
        <mxCell id="xGYagt261xtawh2tjkWc-35" value="right" style="whiteSpace=wrap;html=1;aspect=fixed;fontSize=13;fontStyle=1" vertex="1" parent="1">
          <mxGeometry x="480" y="250" width="40" height="40" as="geometry" />
        </mxCell>
        <mxCell id="xGYagt261xtawh2tjkWc-42" value="" style="endArrow=none;html=1;rounded=0;" edge="1" parent="1">
          <mxGeometry width="50" height="50" relative="1" as="geometry">
            <mxPoint x="480" y="160" as="sourcePoint" />
            <mxPoint x="520" y="160" as="targetPoint" />
          </mxGeometry>
        </mxCell>
        <mxCell id="xGYagt261xtawh2tjkWc-43" value="" style="endArrow=none;html=1;rounded=0;" edge="1" parent="1">
          <mxGeometry width="50" height="50" relative="1" as="geometry">
            <mxPoint x="520" y="160" as="sourcePoint" />
            <mxPoint x="560" y="160" as="targetPoint" />
          </mxGeometry>
        </mxCell>
        <mxCell id="xGYagt261xtawh2tjkWc-45" value="NOTE- THIS CODE WILL SEGFAULT BECAUSE IT TRIES TO DEREFERENCE A NULL POINTER" style="rounded=0;whiteSpace=wrap;html=1;fontSize=20;fontStyle=1" vertex="1" parent="1">
          <mxGeometry x="365" y="320" width="275" height="110" as="geometry" />
        </mxCell>
      </root>
    </mxGraphModel>
  </diagram>
</mxfile>
